# xmcd
#
# Track frame offsets: 
#        150
#        16447
#        33752
#        45047
#        64457
#        80865
#        95747
#        111092
#        125145
#        139377
#        153207
#
# Disc length: 2284 seconds
#
# Revision: 0
# Processed by: cddbd v1.5.2PL0 Copyright (c) Steve Scherf et al.
# Submitted via: ExactAudioCopyFreeDBPlugin 1.0
#
DISCID=9408ea0b
DTITLE=David Wilcox - David Wilcox - Icon
DYEAR=2013
DGENRE=Blues
TTITLE0=Riverboat Fantasy
TTITLE1=Somethin's Shakin'
TTITLE2=Downtown Came Uptown
TTITLE3=Layin' Pipe
TTITLE4=Breakfast At The Circus
TTITLE5=O Freedom
TTITLE6=Do The Bearcat
TTITLE7=Hot, Hot Papa
TTITLE8=Cheap Beer Joint
TTITLE9=Preachin' The Blues
TTITLE10=That Hypnotizin' Boogie
EXTD=
EXTT0=
EXTT1=
EXTT2=
EXTT3=
EXTT4=
EXTT5=
EXTT6=
EXTT7=
EXTT8=
EXTT9=
EXTT10=
PLAYORDER=
